<svg aria-hidden="true" style="position: absolute; width: 0; height: 0; overflow: hidden;" version="1.1" xmlns="http://www.w3.org/2000/svg" xmlns:xlink="http://www.w3.org/1999/xlink">
<defs>
<symbol id="instagram" viewBox="0 0 32 32">
<path d="M28.846 15.998c-0.016-0-0.032-0-0.048-0 0-1.298 0.025-2.597-0.007-3.894-0.031-1.224-0.077-2.451-0.201-3.668-0.119-1.164-0.529-2.237-1.315-3.142-1.099-1.266-2.55-1.799-4.157-1.897-1.828-0.112-3.663-0.139-5.495-0.161-1.823-0.022-3.648-0.015-5.471 0.022-1.224 0.025-2.451 0.076-3.668 0.201-1.164 0.119-2.237 0.529-3.142 1.315-1.266 1.099-1.799 2.55-1.897 4.157-0.112 1.828-0.139 3.663-0.161 5.495-0.022 1.823-0.015 3.648 0.022 5.471 0.025 1.224 0.077 2.451 0.201 3.668 0.119 1.164 0.529 2.237 1.315 3.142 1.099 1.266 2.55 1.799 4.157 1.897 1.828 0.112 3.663 0.139 5.495 0.161 1.823 0.022 3.648 0.023 5.471-0.024 1.346-0.035 2.705-0.060 4.031-0.268 2.265-0.356 3.798-1.669 4.408-3.917 0.198-0.728 0.301-1.498 0.329-2.254 0.078-2.099 0.093-4.201 0.134-6.302zM0.464 21.133c0-3.422 0-6.844 0-10.266 0.017-0.097 0.047-0.194 0.050-0.292 0.036-1.205 0.090-2.407 0.385-3.583 0.666-2.654 2.205-4.585 4.736-5.679 1.373-0.594 2.831-0.766 4.309-0.826 0.324-0.013 0.648-0.046 0.971-0.070h10.266c0.097 0.017 0.194 0.047 0.292 0.050 1.205 0.036 2.407 0.090 3.584 0.385 2.654 0.666 4.585 2.205 5.679 4.736 0.594 1.373 0.766 2.831 0.826 4.309 0.013 0.324 0.046 0.648 0.070 0.971v10.266c-0.017 0.097-0.047 0.194-0.050 0.292-0.036 1.205-0.090 2.407-0.385 3.583-0.666 2.654-2.205 4.585-4.736 5.679-1.372 0.594-2.831 0.766-4.309 0.826-0.324 0.013-0.647 0.046-0.971 0.070h-10.266c-0.097-0.017-0.194-0.047-0.292-0.050-1.205-0.036-2.407-0.090-3.583-0.385-2.654-0.666-4.585-2.205-5.679-4.736-0.593-1.372-0.766-2.831-0.826-4.309-0.013-0.324-0.046-0.647-0.070-0.971z"></path>
<path d="M16.044 21.184c2.837 0 5.186-2.321 5.189-5.126 0.003-2.89-2.299-5.241-5.134-5.243-2.9-0.002-5.235 2.304-5.235 5.172s2.321 5.197 5.18 5.197zM24.057 16.007c-0.002 4.431-3.592 8.009-8.031 8.002-4.415-0.006-7.99-3.595-7.987-8.016 0.003-4.433 3.593-8.010 8.031-8.002 4.416 0.007 7.989 3.593 7.987 8.016z"></path>
<path d="M24.35 5.806c1.047-0.005 1.89 0.829 1.892 1.871s-0.838 1.887-1.879 1.889c-1.031 0.002-1.885-0.856-1.881-1.891 0.004-1.024 0.844-1.865 1.868-1.869z"></path>
</symbol>
<symbol id="youtube" viewBox="0 0 27 32">
<path d="M22.040 12.253h-1.642v-0.957c-0.622 0.719-1.15 1.082-1.725 1.082-0.505 0-0.855-0.24-1.030-0.673-0.107-0.263-0.182-0.675-0.182-1.279v-6.963h1.642v7.138c0.038 0.244 0.141 0.334 0.35 0.334 0.314 0 0.598-0.275 0.946-0.769v-6.702h1.642v8.791z"></path>
<path d="M14.611 9.642c0.086 0.87-0.182 1.302-0.691 1.302s-0.777-0.432-0.691-1.302v-3.482c-0.086-0.87 0.181-1.278 0.691-1.278s0.778 0.408 0.692 1.278l-0.001 3.482zM16.252 6.335c0-0.94-0.187-1.645-0.518-2.089-0.437-0.601-1.123-0.847-1.814-0.847-0.782 0-1.378 0.246-1.814 0.847-0.336 0.444-0.517 1.157-0.517 2.097l-0.002 3.126c0 0.934 0.16 1.58 0.497 2.019 0.437 0.599 1.145 0.917 1.836 0.917s1.412-0.318 1.849-0.917c0.331-0.44 0.484-1.085 0.484-2.019v-3.134z"></path>
<path d="M9.772 7.466v4.787h-1.728v-4.787c0 0-1.791-5.869-2.16-6.963h1.814l1.213 4.585 1.207-4.585h1.814l-2.16 6.963z"></path>
<path d="M16.615 20.719c-0.258 0-0.553 0.137-0.814 0.397l-0.002 5.279c0.262 0.263 0.558 0.397 0.816 0.397 0.451 0 0.655-0.334 0.655-1.204v-3.743c0-0.87-0.204-1.126-0.655-1.126z"></path>
<path d="M23.058 21.765c0-0.804-0.206-1.046-0.725-1.046-0.523 0-0.744 0.222-0.744 1.035v0.963l1.469-0.002v-0.95z"></path>
<path d="M22.348 26.792c0.385 0 0.61-0.211 0.699-0.632 0.014-0.086 0.012-0.462 0.012-1.094h1.641v0.247c0 0.508-0.042 0.867-0.056 1.025-0.053 0.349-0.176 0.665-0.366 0.944-0.433 0.632-1.075 0.943-1.892 0.943s-1.441-0.297-1.893-0.891c-0.332-0.435-0.545-1.082-0.545-2.007v-3.047c0-0.93 0.194-1.648 0.526-2.088 0.452-0.595 1.075-0.91 1.874-0.91 0.785 0 1.408 0.315 1.846 0.91 0.327 0.44 0.509 1.12 0.509 2.050l0 1.779h-3.113v1.563c-0.006 0.803 0.221 1.208 0.758 1.208zM18.91 25.501c0 0.804-0.068 1.372-0.173 1.741-0.209 0.647-0.664 0.983-1.287 0.983-0.556 0-1.126-0.337-1.649-0.989l-0.002 0.876h-1.555v-11.664h1.555l-0.002 3.803c0.505-0.626 1.077-0.983 1.653-0.983 0.623 0 1.041 0.363 1.25 1.014 0.105 0.35 0.209 0.913 0.209 1.737v3.482zM12.949 28.112h-1.642v-0.957c-0.622 0.719-1.15 1.082-1.725 1.082-0.505 0-0.855-0.24-1.030-0.673-0.107-0.263-0.182-0.675-0.182-1.279v-6.877h1.642v7.050c0.038 0.244 0.141 0.334 0.35 0.334 0.314 0 0.598-0.275 0.946-0.769v-6.615h1.642v8.704zM6.729 28.112h-1.728v-10.010h-1.814v-1.652l5.443-0.002v1.654h-1.901v10.010zM26.604 17.311c0 0-0.252-1.783-1.026-2.568-0.981-1.030-2.081-1.036-2.585-1.096-3.61-0.262-9.025-0.262-9.025-0.262h-0.011c0 0-5.415 0-9.025 0.262-0.504 0.060-1.604 0.065-2.585 1.096-0.773 0.785-1.025 2.568-1.025 2.568s-0.258 2.094-0.258 4.188v1.963c0 2.094 0.258 4.188 0.258 4.188s0.252 1.783 1.025 2.568c0.981 1.031 2.271 0.998 2.845 1.106 2.064 0.199 8.771 0.26 8.771 0.26s5.421-0.008 9.031-0.27c0.504-0.060 1.604-0.065 2.585-1.096 0.773-0.785 1.026-2.568 1.026-2.568s0.258-2.094 0.258-4.188v-1.963c0-2.094-0.258-4.188-0.258-4.188z"></path>
</symbol>
<symbol id="facebook" viewBox="0 0 17 32">
<path d="M11.195 31.527v-14.192h4.582l0.686-5.531h-5.268v-3.531c0-1.601 0.428-2.693 2.636-2.693l2.817-0.001v-4.947c-0.487-0.067-2.16-0.218-4.105-0.218-4.061 0-6.842 2.577-6.842 7.311v4.079h-4.594v5.531h4.594v14.192h5.494z"></path>
</symbol>
<symbol id="menu" viewBox="0 0 32 32">
<path d="M6.4 11.734v-2.134h19.2v2.134h-19.2zM6.4 17.066h19.2v-2.133h-19.2v2.133zM6.4 22.4h19.2v-2.134h-19.2v2.134z"></path>
</symbol>
<symbol id="icon-dots" viewBox="0 0 65 32">
<path fill="#fff" style="fill: var(--color1, #fff)" d="M17.455 16.208c0 1.377-1.116 2.494-2.494 2.494s-2.494-1.116-2.494-2.494c0-1.377 1.116-2.494 2.494-2.494s2.494 1.116 2.494 2.494z"></path>
<path fill="#fff" style="fill: var(--color1, #fff)" d="M25.766 16.208c0 1.377-1.116 2.494-2.494 2.494s-2.494-1.116-2.494-2.494c0-1.377 1.116-2.494 2.494-2.494s2.494 1.116 2.494 2.494z"></path>
<path fill="#e43071" style="fill: var(--color2, #e43071)" d="M36.156 16c0 1.951-1.582 3.532-3.532 3.532s-3.532-1.582-3.532-3.532c0-1.951 1.582-3.532 3.532-3.532s3.532 1.582 3.532 3.532z"></path>
<path fill="#fff" style="fill: var(--color1, #fff)" d="M44.468 16.208c0 1.377-1.116 2.494-2.493 2.494s-2.493-1.116-2.493-2.494c0-1.377 1.116-2.494 2.493-2.494s2.493 1.116 2.493 2.494z"></path>
<path fill="#fff" style="fill: var(--color1, #fff)" d="M52.779 16.208c0 1.377-1.116 2.494-2.493 2.494s-2.493-1.116-2.493-2.494c0-1.377 1.116-2.494 2.493-2.494s2.493 1.116 2.493 2.494z"></path>
</symbol>
</defs>
</svg>
